<svg xmlns="http://www.w3.org/2000/svg" width="616" height="353" viewBox="0 0 616 353">
  <defs>
    <linearGradient id="bg" x1="0%" y1="0%" x2="100%" y2="100%">
      <stop offset="0%" style="stop-color:#f59e0b"/>
      <stop offset="100%" style="stop-color:#d97706"/>
    </linearGradient>
    <pattern id="dots" x="0" y="0" width="40" height="40" patternUnits="userSpaceOnUse">
      <circle cx="20" cy="20" r="1" fill="rgba(255,255,255,0.1)"/>
    </pattern>
    <pattern id="diagonal" x="0" y="0" width="20" height="20" patternUnits="userSpaceOnUse" patternTransform="rotate(45)">
      <rect width="20" height="10" fill="rgba(255,255,255,0.04)"/>
    </pattern>
  </defs>
  <rect width="616" height="353" fill="url(#bg)"/>
  <rect width="616" height="353" fill="url(#dots)"/>
  <rect width="616" height="353" fill="url(#diagonal)"/>
  <circle cx="308" cy="140" r="120" fill="rgba(255,255,255,0.15)"/>
    <g transform="translate(258, 90) scale(4.17)">
      <path d="M7.666 14.871c.237.147 3.818.875 4.693 1.02.303.064.088.376-.33.587-.943.251-5.517-1.607-4.363-1.607zm5.647-13.264l3.505 3.56c.333.34.328.998.142 1.187l-1.74-1.392-.342 2.061-1.455-.767-2.328 1.47-.771-3.1L9.073 6.79H7.16c-.78 0-.871-.99-.163-1.698 1.237-1.335 2.657-2.696 3.429-3.485.776-.793 2.127-.77 2.887 0zM9.786.97l-8.86 9.066c-2.993 3.707 2.038 3.276 4.194 4.343.774.791-2.965 1.375-2.191 2.166.773.791 4.678 1.524 5.453 2.314.773.791-1.584 1.63-.81 2.42.773.792 2.563.042 2.898 1.868.238 1.304 3.224.56 4.684-.508.774-.791-1.48-.717-.706-1.508 1.923-1.967 3.715-.714 4.373-2.686.325-.974-2.832-1.501-2.057-2.292 2.226-1.3 9.919-2.146 6.268-5.796L13.85.97c-1.123-1.078-2.998-1.09-4.063 0zm10.177 17.475c0 .45 3.314.745 3.314-.106-.472-1.366-2.922-1.274-3.314.106zm-14.928 2.39c.784.679 1.997-.169 2.36-1.116-.76-1.01-3.607.037-2.36 1.116zm14.512-1.466c-1.011.908.114 1.828 1.111 1.242.222-.225-.006-1.016-1.11-1.242Z" fill="white"/>
    </g>
  <text x="308" y="240" font-family="Inter, sans-serif" font-size="28" font-weight="800" fill="white" text-anchor="middle">Inkscape</text>
  
  <text x="308" y="305" font-family="Inter, sans-serif" font-size="14" fill="rgba(255,255,255,0.85)" text-anchor="middle" font-weight="500">Diseño vectorial</text>
  <text x="308" y="328" font-family="Inter, sans-serif" font-size="12" fill="rgba(255,255,255,0.7)" text-anchor="middle">⭐ Open Source</text>
  <rect x="20" y="20" width="105" height="22" rx="11" fill="#10b981"/>
  <text x="72" y="35" font-family="Inter, sans-serif" font-size="11" font-weight="700" fill="white" text-anchor="middle">OPEN SOURCE</text>
  <rect x="540" y="20" width="56" height="22" rx="11" fill="white" opacity="0.9"/>
  <text x="568" y="35" font-family="Inter, sans-serif" font-size="11" font-weight="700" fill="#d97706" text-anchor="middle">FREE</text>
</svg>
