<svg xmlns="http://www.w3.org/2000/svg" width="616" height="353" viewBox="0 0 616 353">
  <defs>
    <linearGradient id="bg" x1="0%" y1="0%" x2="100%" y2="100%">
      <stop offset="0%" style="stop-color:#8b5cf6"/>
      <stop offset="100%" style="stop-color:#7c3aed"/>
    </linearGradient>
    <pattern id="dots" x="0" y="0" width="40" height="40" patternUnits="userSpaceOnUse">
      <circle cx="20" cy="20" r="1" fill="rgba(255,255,255,0.1)"/>
    </pattern>
    <pattern id="diagonal" x="0" y="0" width="20" height="20" patternUnits="userSpaceOnUse" patternTransform="rotate(45)">
      <rect width="20" height="10" fill="rgba(255,255,255,0.04)"/>
    </pattern>
  </defs>
  <rect width="616" height="353" fill="url(#bg)"/>
  <rect width="616" height="353" fill="url(#dots)"/>
  <rect width="616" height="353" fill="url(#diagonal)"/>
  <circle cx="308" cy="140" r="120" fill="rgba(255,255,255,0.15)"/>
    <g transform="translate(258, 90) scale(4.17)">
      <path d="M0 18.858h24V8.181H10.717V5.142H0ZM2.021 7.271h6.657v1.994c-1.74 2.09-2.84 4.502-2.948 7.404H3.477c.09-2.501.353-4.954 2.283-6.994l.033-.033H2.021Zm8.45 1.253h13.215v10.143H10.47Zm6.01 1.213v6.871h1.482v-6.87Zm2.755.043v6.912h1.616v-2.42h1.029c.43-.001.754-.29.969-.716.427-.848.429-2.257-.024-3.092-.227-.419-.571-.697-1.033-.684zm-7.924.002v1.596h2.217l-2.304 3.736v1.54h4.287V15.1h-2.698l2.786-3.909v-1.41Zm9.452 1.512h.595c.164-.006.287.081.371.217.17.273.172.736.004.99a.364.364 0 0 1-.373.176l-.55.047z" fill="white"/>
    </g>
  <text x="308" y="240" font-family="Inter, sans-serif" font-size="28" font-weight="800" fill="white" text-anchor="middle">7-Zip</text>
  
  <text x="308" y="305" font-family="Inter, sans-serif" font-size="14" fill="rgba(255,255,255,0.85)" text-anchor="middle" font-weight="500">Compresión de archivos</text>
  <text x="308" y="328" font-family="Inter, sans-serif" font-size="12" fill="rgba(255,255,255,0.7)" text-anchor="middle">⭐ Open Source</text>
  <rect x="20" y="20" width="105" height="22" rx="11" fill="#10b981"/>
  <text x="72" y="35" font-family="Inter, sans-serif" font-size="11" font-weight="700" fill="white" text-anchor="middle">OPEN SOURCE</text>
  <rect x="540" y="20" width="56" height="22" rx="11" fill="white" opacity="0.9"/>
  <text x="568" y="35" font-family="Inter, sans-serif" font-size="11" font-weight="700" fill="#7c3aed" text-anchor="middle">FREE</text>
</svg>
