<svg xmlns="http://www.w3.org/2000/svg" width="616" height="353" viewBox="0 0 616 353">
  <defs>
    <linearGradient id="bg" x1="0%" y1="0%" x2="100%" y2="100%">
      <stop offset="0%" style="stop-color:#5B86C9"/>
      <stop offset="100%" style="stop-color:#5B86C9"/>
    </linearGradient>
    <pattern id="dots" x="0" y="0" width="40" height="40" patternUnits="userSpaceOnUse">
      <circle cx="20" cy="20" r="1" fill="rgba(255,255,255,0.08)"/>
    </pattern>
    <radialGradient id="glow" cx="50%" cy="50%" r="50%">
      <stop offset="0%" stop-color="rgba(255,255,255,0.12)"/>
      <stop offset="100%" stop-color="rgba(255,255,255,0)"/>
    </radialGradient>
  </defs>
  <rect width="616" height="353" fill="url(#bg)"/>
  <rect width="616" height="353" fill="url(#dots)"/>
  <rect width="616" height="353" fill="url(#glow)"/>
  <g transform="translate(228, 96) scale(12.5)">
    <path d="m8.727 1.554 2.727 4.334v16.558h1.091V5.889l2.728-4.335zm-6 4.948V9.8h7.091c.003-.83 0-1.672-.006-2.498 0-.383-.356-.732-.718-.8H2.727zm12.303.001c-.402.024-.835.41-.834.837l-.014 12.619c0 .57.767 1.065 1.207.727l8.28-6.331c.441-.335.44-1.12 0-1.455l-8.265-6.287a.553.553 0 0 0-.374-.11zM-.001 12v3.299h9.818V12zm4.363 5.497v3.3h5.455v-3.3z" fill="white"/>
  </g>
</svg>