<svg xmlns="http://www.w3.org/2000/svg" width="616" height="353" viewBox="0 0 616 353">
  <defs>
    <linearGradient id="bg" x1="0%" y1="0%" x2="100%" y2="100%">
      <stop offset="0%" style="stop-color:#F46D01"/>
      <stop offset="100%" style="stop-color:#F46D01"/>
    </linearGradient>
    <pattern id="dots" x="0" y="0" width="40" height="40" patternUnits="userSpaceOnUse">
      <circle cx="20" cy="20" r="1" fill="rgba(255,255,255,0.08)"/>
    </pattern>
    <radialGradient id="glow" cx="50%" cy="50%" r="50%">
      <stop offset="0%" stop-color="rgba(255,255,255,0.12)"/>
      <stop offset="100%" stop-color="rgba(255,255,255,0)"/>
    </radialGradient>
  </defs>
  <rect width="616" height="353" fill="url(#bg)"/>
  <rect width="616" height="353" fill="url(#dots)"/>
  <rect width="616" height="353" fill="url(#glow)"/>
  <g transform="translate(228, 96) scale(12.5)">
    <path d="m10.065 0-8.57 21.269h3.595l6.91-16.244 6.91 16.244h3.594l-8.57-21.269zm1.935 9.935c-0.76666 1.8547-1.5334 3.7094-2.298 5.565 1.475 4.54 1.475 4.54 2.298 8.5 0.823-3.96 0.823-3.96 2.297-8.5-0.76637-1.8547-1.5315-3.7099-2.297-5.565z" fill="white"/>
  </g>
</svg>